<?xml version="1.0" standalone="no"?>
<!DOCTYPE svg PUBLIC "-//W3C//DTD SVG 1.1//EN" "http://www.w3.org/Graphics/SVG/1.1/DTD/svg11.dtd" >
<svg xmlns="http://www.w3.org/2000/svg">
<metadata>
This is a custom SVG webfont generated by Font Squirrel.
Copyright   : FREEWARE
</metadata>
<defs>
<font id="TRONRegular" horiz-adv-x="2252" >
<font-face units-per-em="2048" ascent="1638" descent="-410" />
<missing-glyph horiz-adv-x="1024" />
<glyph unicode=" "  horiz-adv-x="1024" />
<glyph unicode="&#x09;" horiz-adv-x="1024" />
<glyph unicode="&#xa0;" horiz-adv-x="1024" />
<glyph unicode="!" horiz-adv-x="1433" d="M113 20v275h315v-275h-315zM113 541v1480h315v-1480h-315z" />
<glyph unicode="&#x22;" horiz-adv-x="1433" d="M346 1956h316l-158 -318zM772 1956h315l-157 -318z" />
<glyph unicode="#" horiz-adv-x="1597" d="M428 899h631l-158 -317l-151 317l-164 -317zM428 1284h631l-158 318l-151 -318l-164 318zM631 975l2 223l211 2v-227z" />
<glyph unicode="$" horiz-adv-x="1351" d="M63 1319h256q0 125 82 227q96 115 252 115h621v256h-612q-250 0 -424.5 -174t-174.5 -424zM70 721h612q246 0 424 172l72 88l20 35l33 71q43 111 43 232h-250q0 -125 -82 -227q-98 -115 -252 -115h-620v-256zM506 406v274h315v-274h-315zM506 1057v557h315v-557h-315z M506 1946v274h315v-274h-315z" />
<glyph unicode="%" horiz-adv-x="1781" d="M338 61l158 398l604 1573l325 2l-155 -396l-606 -1572zM422 2032h473l-238 -478zM870 23l236 475l237 -475h-473z" />
<glyph unicode="&#x26;" horiz-adv-x="2248" d="M588 395v1192h964v-184h-448v-273h448l258 273v-1008h-264h-442h-516zM1104 602h448v272h-448v-272z" />
<glyph unicode="'" horiz-adv-x="1433" d="M559 1956h315l-157 -318z" />
<glyph unicode="(" horiz-adv-x="1261" d="M139 324v1327q0 367 301 680t693 313v-424q-268 0 -433 -195q-133 -168 -133 -374v-1327q0 -209 138 -379q156 -186 432 -187v-432q-389 0 -693.5 291t-304.5 707z" />
<glyph unicode=")" horiz-adv-x="1368" d="M88 -242v-432q387 0 692 290t305 708v1327q0 399 -303 696t-690 297v-424q268 0 432 -195q133 -168 133 -374v-1327q0 -209 -137 -379q-156 -187 -432 -187z" />
<glyph unicode="*" horiz-adv-x="886" d="M94 1864l232 209l-228 206l277 -86l71 285l76 -285l273 99l-217 -215l217 -222l-277 105l-72 -293l-55 293z" />
<glyph unicode="+" horiz-adv-x="1232" d="M133 700v218h373v372h217v-372h377v-218h-377v-372h-217v372h-373z" />
<glyph unicode="," horiz-adv-x="665" d="M113 -219v522h315z" />
<glyph unicode="-" horiz-adv-x="1101" d="M190 707v344h721v-344h-721z" />
<glyph unicode="." horiz-adv-x="675" d="M182 20v275h316v-275h-316z" />
<glyph unicode="/" horiz-adv-x="854" d="M-117 0l158 397l604 1573l326 2l-156 -395l-606 -1573z" />
<glyph unicode="0" horiz-adv-x="1662" d="M119 119v1022q0 412 289 706q139 139 324.5 210t809.5 71v-1020q0 -412 -288.5 -700.5t-692.5 -288.5h-442zM545 543q123 0 379 135q193 162 192 418v614q-209 0 -379 -137q-193 -162 -192 -420v-313v-297z" />
<glyph unicode="1" horiz-adv-x="1171" d="M76 1026h600v-995h422v1990z" />
<glyph unicode="2" d="M113 23l1022 995v-574h1054v-421h-2076zM178 1024h428q0 209 137 379q162 193 420 192h822v426h-809q-414 0 -706 -290.5t-292 -706.5z" />
<glyph unicode="3" horiz-adv-x="2220" d="M88 1653v422h2077l-1022 -996v574h-1055zM100 1020h428q0 -209 138 -379q162 -193 419 -192h822v-426h-809q-338 0 -668 289.5t-330 707.5z" />
<glyph unicode="4" horiz-adv-x="1843" d="M104 1122l1082 994h538l-1081 -994h-539zM727 31h428v323q0 209 137 379q164 195 432 195v424q-401 0 -699 -291t-298 -707v-323z" />
<glyph unicode="5" d="M104 31h809q317 0 657.5 288.5t340.5 708.5h-428q0 -209 -137 -379q-162 -193 -420 -192h-822v-426zM113 2021l1022 -995v573h1054v422h-2076z" />
<glyph unicode="6" d="M104 31h1022q328 0 663 289.5t335 707.5h-2020v-379h1455q-164 -188 -422 -188h-1033v-430zM104 1151l1082 993h538l-1081 -993h-539z" />
<glyph unicode="7" horiz-adv-x="1671" d="M76 31h510l1007 1036v539zM176 1647v428h1419v-428h-1419z" />
<glyph unicode="8" d="M106 31v1986h2040v-1986h-442h-735h-863zM969 373h747v454h-747v-454zM969 1253h747v455h-747v-455z" />
<glyph unicode="9" d="M104 1147h2020v379h-1454q164 188 422 188h1032v430h-1022q-412 0 -705 -289.5t-293 -707.5zM504 47l1081 993h539l-1082 -993h-538z" />
<glyph unicode=":" horiz-adv-x="655" d="M113 20v275h315v-275h-315zM113 1747v274h315v-274h-315z" />
<glyph unicode=";" horiz-adv-x="624" d="M113 -227v522h315zM113 1747v274h315v-274h-315z" />
<glyph unicode="&#x3c;" horiz-adv-x="1089" d="M199 707v368l690 311v-204l-690 -291l690 -291v-205z" />
<glyph unicode="=" horiz-adv-x="1232" d="M133 584v217h967v-217h-967zM133 948v217h967v-217h-967z" />
<glyph unicode="&#x3e;" horiz-adv-x="1085" d="M197 395v205l690 291l-690 291v204l690 -311v-368z" />
<glyph unicode="?" horiz-adv-x="1089" d="M176 995h426v-561h316v1557zM602 20v275h316v-275h-316z" />
<glyph unicode="@" d="M154 1075q0 403 284.5 688t687.5 285t688 -284.5t285 -688.5q0 -403 -284.5 -688t-688.5 -285q-403 0 -687.5 285t-284.5 688zM256 1075q0 -362 254 -616t616 -254t616.5 254t254.5 616t-254 616.5t-617 254.5q-362 0 -616 -254.5t-254 -616.5zM461 1075q0 276 194.5 471 t470.5 195t471 -194.5t195 -471.5q0 -276 -194.5 -470.5t-471.5 -194.5q-276 0 -470.5 194.5t-194.5 470.5zM563 1075q0 -221 166 -392t397 -171q233 0 398.5 165t165.5 398q0 227 -180.5 395t-383.5 168q-233 0 -398 -165t-165 -398zM768 1075q0 141 104 252q53 53 117 80 l66 18l71 9q141 0 252 -105q53 -49 80 -123l19 -65l8 -66q0 -141 -105 -252q-49 -49 -123 -80l-65 -18l-66 -8q-141 0 -252 104q-49 53 -79 117l-19 66zM870 1075q0 -98 81 -177t175 -79q104 0 180 76t76 180t-75.5 180t-180.5 76q-98 0 -177 -94t-79 -162zM1075 1075 q0 20 11.5 31.5t39.5 19.5q18 0 31 -12q12 -6 21 -39q0 -14 -11 -26q-6 -12 -41 -25q-20 0 -32.5 11t-18.5 40z" />
<glyph unicode="A" d="M197 59h471l303 559h1085l-784 1432z" />
<glyph unicode="B" d="M104 41v379h1455q-164 188 -422 188h-1033v430h1022q412 0 705 -289.5t293 -707.5h-2020zM104 1698v426h504q412 0 705 -290t293 -708h-428q0 209 -138 379q-162 193 -419 193h-517z" />
<glyph unicode="C" d="M238 1028q0 -229 137 -467q117 -215 311 -373q100 -78 188 -116l179 -39h964v424h-661q-295 0 -471 133q-195 147 -195 438q0 137 121 336q145 238 322 238h884v419h-964q-135 0 -357 -153q-178 -147 -286 -275q-172 -286 -172 -565z" />
<glyph unicode="D" d="M236 33v424h661q295 0 471 133q195 147 195 438q0 137 -121 336q-145 238 -322 238h-884v419h964q135 0 356 -153q178 -147 287 -275q172 -287 172 -565q0 -229 -137 -467q-123 -223 -316.5 -375.5t-361.5 -152.5h-964z" />
<glyph unicode="E" d="M98 33l6 1212h756v-418h-323v-378h1609v-418zM104 1599v416h2044v-416h-2044z" />
<glyph unicode="F" d="M104 31v1214h756v-418h-323v-796h-433zM104 1599v416h2044v-416h-2044z" />
<glyph unicode="G" d="M131 1024q0 121 123 457q117 225 297 368q211 168 446 168h938v-420h-911l-49 -26l-146 -84l-188 -203q-59 -143 -59 -260q0 -168 127 -356q143 -217 315 -217h911l-678 743h678v-1165h-991q-139 0 -356 155q-199 143 -289 275q-168 248 -168 565z" />
<glyph unicode="H" d="M106 31v1986h863v-764h747v764h430v-1986h-442v796h-735v-796h-863z" />
<glyph unicode="I" horiz-adv-x="696" d="M104 31v1984h431v-1984h-431z" />
<glyph unicode="J" horiz-adv-x="1171" d="M88 31q317 0 657 288.5t340 708.5v987h-428v-987q0 -209 -137 -379q-156 -186 -432 -186v-432z" />
<glyph unicode="K" d="M109 31v993h430v-993h-430zM563 1024l1082 -993h538l-1081 993h-539zM563 1114l1082 993h538l-1081 -993h-539z" />
<glyph unicode="L" d="M106 31v1988h861v-1564h749v-424h-1610z" />
<glyph unicode="M" d="M113 31v1990l1022 -995l1022 995v-436v-1554h-396v995h-1226v-995h-422z" />
<glyph unicode="N" d="M113 31v1990l1022 -995h-600v-995h-422zM1167 1026h600v995h422v-1990z" />
<glyph unicode="O" d="M129 1024q0 422 288 709.5t709 287.5q412 0 705 -289.5t293 -707.5q0 -424 -287 -710.5t-711 -286.5q-338 0 -667.5 289.5t-329.5 707.5zM582 1024q0 -199 139 -369q164 -203 418 -202q227 0 393 165.5t166 405.5q0 209 -139 379q-162 193 -420 192q-227 0 -392 -167.5 t-165 -403.5z" />
<glyph unicode="P" d="M104 31v993h863v-993h-863zM317 1595v426h809q412 0 705 -289.5t293 -707.5h-428q0 209 -137 379q-162 193 -420 192h-822z" />
<glyph unicode="Q" d="M129 1024q0 422 288 709.5t709 287.5q412 0 705 -289.5t293 -707.5q0 -133 -39 -268l-21 -70l-26 -68l-31 -63q-12 -33 -41 -72l-55 -98l211 -354l-570 75l-49 5l-33 2l-45 -23l-55 -24q-16 -8 -45 -16.5t-41 -12.5l-84 -10h-74q-338 0 -667.5 289.5t-329.5 707.5z M582 1024q0 -199 139 -369q164 -203 418 -202l59 6l55 12l47 16l31 17l-192 375l475 -113q49 43 61 121l17 76l6 61q0 209 -139 379q-162 193 -420 192q-227 0 -392 -167.5t-165 -403.5z" />
<glyph unicode="R" d="M104 31v993h428v-993h-428zM317 1595v426h809q412 0 705 -289.5t293 -707.5h-428q0 209 -137 379q-162 193 -420 192h-822zM563 1024l1022 -993h539l-1022 993h-539z" />
<glyph unicode="S" d="M104 1024h428q0 209 138 379q162 193 420 192h1034v426h-1022q-414 0 -706 -290.5t-292 -706.5zM115 27h1022q412 0 706 288q139 139 210 324.5t71 384.5h-418q0 -209 -137 -379q-162 -193 -420 -192h-1034v-426z" />
<glyph unicode="T" horiz-adv-x="2007" d="M104 1599v418h1854v-418h-488v-1568h-862l2 1568h-506z" />
<glyph unicode="U" d="M127 1028v995h455v-999q0 -199 139 -369q164 -203 418 -202q227 0 393 165.5t166 405.5v999h426v-999q0 -424 -287 -710.5t-711 -286.5q-412 0 -705.5 288.5t-293.5 712.5z" />
<glyph unicode="V" d="M197 2017h471l303 -559h1085l-784 -1431z" />
<glyph unicode="W" d="M113 31l1022 995l1022 -995v436v1554h-396v-995h-1226v995h-422v-1990z" />
<glyph unicode="X" d="M104 31l951 993l950 -991zM104 2056l951 -991l950 991h-1901z" />
<glyph unicode="Y" horiz-adv-x="1908" d="M74 2056l612 -1069l-582 -956h484l1214 2025h-1728z" />
<glyph unicode="Z" d="M113 23l1022 995v-574h1054v-421h-2076zM113 1599v422h2076l-1022 -995v573h-1054z" />
<glyph unicode="[" horiz-adv-x="4188" d="M18 2462v125h1993v-99h-815l451 -313h139v-74h-672l-510 361h-586zM217 172v1606h399v-1297l398 -309h-797zM217 2001v412h399v-412h-399zM229 1827v125h3623v-125h-3623zM766 2013v113h174v-113h-174zM1001 2611l711 324h660l708 -324h-2079zM1325 1989v73h1432v-73 h-1432zM1401 1751h1282l-186 -111h-910zM1450 2425h1182l-236 -162h-708zM2073 2488v99h1990v-125h-583l-510 -361h-674v74h110l478 313h-811zM3068 172l399 309v1297h398v-1606h-797zM3144 2013v113h174v-113h-174zM3467 2001v412h398v-412h-398z" />
<glyph unicode="\" horiz-adv-x="854" d="M-115 1970l322 2l155 -395l607 -1573l-320 -4l-157 397z" />
<glyph unicode="]" horiz-adv-x="5246" d="M156 1102l2164 2v-82h-647q-6 31 -33 37q-47 31 -110 31t-103 -23l-57 -43h-919q-174 0 -205 -16q-68 -12 -82 -58q-25 -90 235 -245l1631 -631h1839l1022 475q246 111 245 311q0 158 -190 158h-78h-1438v86h363l-4 -37h438v193h-436v-43h-385l-4 4l-8 10 q-18 18 -56.5 30.5t-95.5 12.5q-98 0 -111 -31q-143 102 -350 103q-158 0 -422 -129h-1482l-156 69h-565v-184z" />
<glyph unicode="^" horiz-adv-x="2164" d="M180 1604l824 954l1081 -997l-828 -1053zM223 1604l1153 309l-372 602zM309 1561l910 -953l174 1258zM1085 2462l375 -514l512 -314zM1350 694l692 867l-563 262z" />
<glyph unicode="_" horiz-adv-x="3969" d="M66 696q0 264 210 455q92 80 227.5 129t260.5 49q264 0 448.5 -210t184.5 -488q0 -270 -213 -457q-203 -178 -488 -178q-264 0 -447 209.5t-183 490.5zM111 692q0 -246 172 -447.5t419 -201.5q264 0 456 173t192 419q0 264 -173 455.5t-417 191.5q-264 0 -456.5 -168 t-192.5 -422zM268 1274q45 59 181 166l100 67l133 78q129 66 276 117q186 59 420 98l92 15l146 14l88 2l154 8q166 0 233 -6l168 -18l63 -13q27 0 261 -73q98 -31 190 -74q100 -37 180 -82q152 -72 223 -135l9 -33l2 -113l41 -12v-74l-21 -270l-24 4l14 115l6 217h-41v139 q-131 86 -231 143l-97 52l-94 49l-129 49l-145 49l-99 27l-118 24l-135 15l-111 6l-211 2l-57 -33h-76l-103 -8l-67 -8l-76 -13q-285 -37 -434 -108l-96 -39q-57 -27 -213 -125h-115l-43 -27l-47 -34l-164 -136h156l8 -4l-55 -18h-142zM305 713q0 168 128 283.5t302 115.5 q170 0 285 -127t115 -303q0 -154 -130.5 -277.5t-299.5 -123.5q-166 0 -283 129t-117 303zM326 715q0 -166 113.5 -290t262.5 -124q166 0 290 111.5t124 265.5q0 170 -111.5 292t-265.5 122q-166 0 -289.5 -111.5t-123.5 -265.5zM551 717q0 53 55.5 120.5t138.5 67.5 q74 0 132.5 -56t58.5 -136q0 -78 -59.5 -134.5t-137.5 -56.5q-43 0 -133 56q-55 55 -55 139zM760 1372q117 111 330 193q150 59 323 92l146 24h235q-12 -82 -37 -182l-26 -61l-37 -68zM766 1331h41l47 -4l90 -18q86 -18 170 -64l41 -18q20 -6 41 -23l92 -49 q150 -76 383 -281l88 -65l76 -45q72 -37 117 -37h377h108l4 -31q16 -70 45 -116q0 -39 66 -129l28 -27l-22 295l22 -43l13 -301l-92 117l-41 86l-19 47l-31 80h-493q-57 6 -111 47l-30 22l-62 41l21 -74q0 -66 -64 -141l-164 -162l-151 -137l1831 -2q-141 221 -189 254 q-45 27 -405 125l-17 35q43 473 105 557q41 57 307 155l94 23l17 -12q-272 -59 -400 -176q-37 -49 -98 -558q109 -18 209 -55l96 -35l103 -47q80 -74 202 -276l-1878 -2l56 225l14 154l-10 96l-19 80l-59 139l-96 147l-134 111l-114 53zM1303 1081l65 -151l29 -94l22 -97 l6 -110l-6 -62l-20 -90l-13 -53l-8 -27l-14 -35l55 41l60 48l37 30l49 47l69 66q72 78 86 123q0 51 -71 110l-168 117q-125 82 -178 137zM1911 586l6 4l25 10h325v-174l-96 -6q-41 0 -121 18q-74 25 -123 107zM1942 573q0 -12 28 -53q31 -37 166 -80h109v142l-295 -2z M2574 285h119q49 -55 211 -140q63 -23 139 -36l78 -11l82 -4q219 0 403.5 160t184.5 381t-168 383q-53 49 -178 125l-41 16l-64 19q-37 12 -90 12v80l58 -2q27 0 51 -8q49 -6 110 -37q111 -47 217 -138q215 -182 215 -446q0 -258 -203.5 -449.5t-504.5 -191.5 q-188 0 -358.5 74t-260.5 213zM2908 1135q35 -53 158 -54l119 4v177q-187 -29 -277 -127zM2931 1128l53 -22q35 -6 88 -6l102 4l2 141q-159 -25 -245 -117zM3041 664q0 57 61.5 122.5t137.5 65.5q61 0 123.5 -63.5t62.5 -135.5q0 -74 -56 -130t-140 -56q-74 0 -133 59 q-56 60 -56 138z" />
<glyph unicode="`" horiz-adv-x="681" d="M-78 2109h426l205 -303l-12 9z" />
<glyph unicode="a" d="M197 59h471l303 559h1085l-784 1432z" />
<glyph unicode="b" d="M104 41v379h1455q-164 188 -422 188h-1033v430h1022q412 0 705 -289.5t293 -707.5h-2020zM104 1698v426h504q412 0 705 -290t293 -708h-428q0 209 -138 379q-162 193 -419 193h-517z" />
<glyph unicode="c" d="M238 1028q0 -229 137 -467q117 -215 311 -373q100 -78 188 -116l179 -39h964v424h-661q-295 0 -471 133q-195 147 -195 438q0 137 121 336q145 238 322 238h884v419h-964q-135 0 -357 -153q-178 -147 -286 -275q-172 -286 -172 -565z" />
<glyph unicode="d" d="M236 33v424h661q295 0 471 133q195 147 195 438q0 137 -121 336q-145 238 -322 238h-884v419h964q135 0 356 -153q178 -147 287 -275q172 -287 172 -565q0 -229 -137 -467q-123 -223 -316.5 -375.5t-361.5 -152.5h-964z" />
<glyph unicode="e" d="M98 33l6 1212h756v-418h-323v-378h1609v-418zM104 1599v416h2044v-416h-2044z" />
<glyph unicode="f" d="M104 31v1214h756v-418h-323v-796h-433zM104 1599v416h2044v-416h-2044z" />
<glyph unicode="g" d="M131 1024q0 121 123 457q117 225 297 368q211 168 446 168h938v-420h-911l-49 -26l-146 -84l-188 -203q-59 -143 -59 -260q0 -168 127 -356q143 -217 315 -217h911l-678 743h678v-1165h-991q-139 0 -356 155q-199 143 -289 275q-168 248 -168 565z" />
<glyph unicode="h" d="M106 31v1986h863v-764h747v764h430v-1986h-442v796h-735v-796h-863z" />
<glyph unicode="i" horiz-adv-x="696" d="M104 31v1984h431v-1984h-431z" />
<glyph unicode="j" horiz-adv-x="1171" d="M88 31q317 0 657 288.5t340 708.5v987h-428v-987q0 -209 -137 -379q-156 -186 -432 -186v-432z" />
<glyph unicode="k" d="M109 31v993h430v-993h-430zM563 1024l1082 -993h538l-1081 993h-539zM563 1114l1082 993h538l-1081 -993h-539z" />
<glyph unicode="l" d="M106 31v1988h861v-1564h749v-424h-1610z" />
<glyph unicode="m" d="M113 31v1990l1022 -995l1022 995v-436v-1554h-396v995h-1226v-995h-422z" />
<glyph unicode="n" d="M113 31v1990l1022 -995h-600v-995h-422zM1167 1026h600v995h422v-1990z" />
<glyph unicode="o" d="M129 1024q0 422 288 709.5t709 287.5q412 0 705 -289.5t293 -707.5q0 -424 -287 -710.5t-711 -286.5q-338 0 -667.5 289.5t-329.5 707.5zM582 1024q0 -199 139 -369q164 -203 418 -202q227 0 393 165.5t166 405.5q0 209 -139 379q-162 193 -420 192q-227 0 -392 -167.5 t-165 -403.5z" />
<glyph unicode="p" d="M104 31v993h863v-993h-863zM317 1595v426h809q412 0 705 -289.5t293 -707.5h-428q0 209 -137 379q-162 193 -420 192h-822z" />
<glyph unicode="q" d="M129 1024q0 422 288 709.5t709 287.5q412 0 705 -289.5t293 -707.5q0 -133 -39 -268l-21 -70l-26 -68l-31 -63q-12 -33 -41 -72l-55 -98l211 -354l-570 75l-49 5l-33 2l-45 -23l-55 -24q-16 -8 -45 -16.5t-41 -12.5l-84 -10h-74q-338 0 -667.5 289.5t-329.5 707.5z M582 1024q0 -199 139 -369q164 -203 418 -202l59 6l55 12l47 16l31 17l-192 375l475 -113q49 43 61 121l17 76l6 61q0 209 -139 379q-162 193 -420 192q-227 0 -392 -167.5t-165 -403.5z" />
<glyph unicode="r" d="M104 31v993h428v-993h-428zM317 1595v426h809q412 0 705 -289.5t293 -707.5h-428q0 209 -137 379q-162 193 -420 192h-822zM563 1024l1022 -993h539l-1022 993h-539z" />
<glyph unicode="s" d="M104 1024h428q0 209 138 379q162 193 420 192h1034v426h-1022q-414 0 -706 -290.5t-292 -706.5zM115 27h1022q412 0 706 288q139 139 210 324.5t71 384.5h-418q0 -209 -137 -379q-162 -193 -420 -192h-1034v-426z" />
<glyph unicode="t" horiz-adv-x="2007" d="M104 1599v418h1854v-418h-488v-1568h-862l2 1568h-506z" />
<glyph unicode="u" d="M127 1028v995h455v-999q0 -199 139 -369q164 -203 418 -202q227 0 393 165.5t166 405.5v999h426v-999q0 -424 -287 -710.5t-711 -286.5q-412 0 -705.5 288.5t-293.5 712.5z" />
<glyph unicode="v" d="M197 2017h471l303 -559h1085l-784 -1431z" />
<glyph unicode="w" d="M113 31l1022 995l1022 -995v436v1554h-396v-995h-1226v995h-422v-1990z" />
<glyph unicode="x" d="M104 31l951 993l950 -991zM104 2058l951 -993l950 991z" />
<glyph unicode="y" horiz-adv-x="1908" d="M74 2056l612 -1069l-582 -956h484l1214 2025h-1728z" />
<glyph unicode="z" d="M113 23l1022 995v-574h1054v-421h-2076zM113 1599v422h2076l-1022 -995v573h-1054z" />
<glyph unicode="{" horiz-adv-x="993" d="M297 172v1606h399v-1606h-399zM297 1827v125h399v-125h-399zM297 2001v412h399v-412h-399zM297 2462v125h399v-125h-399zM297 2611l59 322h283l57 -322h-399z" />
<glyph unicode="|" horiz-adv-x="3969" d="M66 639q0 -244 202.5 -442.5t505.5 -198.5q209 0 369 73.5t250 213.5h-119q-49 -55 -211 -140q-63 -23 -139 -36l-78 -11l-82 -4q-233 0 -410.5 160t-177.5 381t168 383q53 49 178 125l41 16l62 19q41 12 92 12v80l-58 -2q-27 0 -51 -8q-49 -6 -110 -37 q-111 -47 -217 -138q-215 -182 -215 -446zM541 653q0 -68 55 -129q57 -57 141 -57q74 0 133 59q55 59 56 138q0 72 -63.5 130t-135.5 58q-68 0 -129 -61q-57 -64 -57 -138zM739 1206l21 -270l24 4l-14 115l-6 217h41v139q131 86 231 143l97 52l94 49l129 49l145 49l98 27 l119 24l135 15l111 6l211 2l57 -33h76l102 -8l68 -8l76 -13q285 -37 434 -108l96 -39q57 -27 213 -125h115l43 -27l47 -34l164 -136h-156l-8 -4l55 -18h142q-45 59 -181 166l-100 67l-133 78q-129 66 -276 117q-186 59 -422 98l-80 10l-156 19l-133 4l-109 6q-166 0 -233 -6 l-168 -18l-63 -13q-27 0 -261 -73q-98 -31 -190 -74q-100 -37 -180 -82q-152 -72 -223 -135l-9 -33l-2 -113l-41 -12v-74zM756 289l1878 -2l-56 225l-14 154l10 96l19 80l59 139l96 147l134 111l114 53l205 39h-41l-47 -4l-90 -18q-86 -18 -170 -64l-41 -18q-20 -6 -41 -23 l-92 -49q-150 -76 -383 -281l-88 -65l-76 -45q-72 -37 -117 -37h-377h-108l-4 -31q-16 -70 -45 -116q0 -39 -66 -129l-29 -27l23 295l-23 -43l-12 -301l92 117l41 86l19 47l30 80h494q63 6 111 47l30 22l62 41l-21 -74q0 -66 64 -141l164 -162l151 -137l-1831 -2 q141 221 189 254q45 27 405 125l17 35q-43 473 -105 557q-41 57 -307 155l-94 23l-17 -12q272 -59 400 -176q37 -49 98 -558q-104 -18 -209 -55l-96 -35l-103 -47q-79 -73 -202 -276zM782 1085v177q186 -29 277 -127q-35 -53 -158 -54zM791 1245q160 -25 245 -117l-53 -22 q-35 -6 -88 -6l-102 4zM1700 426l96 -6q41 0 121 18q74 25 123 107l16 41l-6 4l-25 10h-325v-174zM1722 440v142l295 -2l8 -7q0 -12 -26.5 -51t-167.5 -82h-109zM2173 1681q12 -88 37 -182l26 -61l37 -68l934 2q-117 111 -330 193q-150 59 -323 92l-146 24h-235zM2247 717 q0 51 71 110l168 117q125 82 178 137l-65 -151l-29 -94l-22 -97l-6 -110l6 -62l20 -90l12 -53l9 -27l14 -35l-55 41l-60 48l-37 30l-49 47l-69 66q-68 78 -86 123zM2570 631q0 -270 213 -457q203 -178 488 -178q246 0 438 209t192 491q0 264 -211 455q-92 80 -227 129 t-260 49q-264 0 -448.5 -209.5t-184.5 -488.5zM2617 635q0 264 173 455.5t417 191.5q266 0 457.5 -169t191.5 -421q0 -246 -171 -447.5t-420 -201.5q-248 0 -448 173t-200 419zM2832 682q0 -145 130 -273t300 -128q166 0 283 129t117 303q0 166 -128 282.5t-302 116.5 q-170 0 -285 -127t-115 -303zM2851 678q0 152 110.5 283t266.5 131q166 0 289.5 -112t123.5 -265q0 -166 -111.5 -290t-264.5 -124q-150 0 -282 111.5t-132 265.5zM3031 713q0 -78 59.5 -134.5t137.5 -56.5q43 0 133 56q55 55 55 139q0 59 -56.5 123.5t-137.5 64.5 q-74 0 -132.5 -57t-58.5 -135z" />
<glyph unicode="}" horiz-adv-x="5246" d="M125 860q0 158 190 158h78h1438v86h-363l5 -37h-439v193h436v-43h385l5 4l8 10q18 18 55 30.5t96 12.5q98 0 111 -31q143 102 350 103q158 0 422 -129h1483l155 69h566v-184l-2165 2v-82h647q6 31 33 37q47 31 110 31t103 -23l57 -43h920q174 0 205 -16q68 -12 81 -58 q25 -90 -235 -245l-1630 -631h-1839l-1022 475q-246 110 -246 311z" />
<glyph unicode="~" horiz-adv-x="2115" d="M109 2021l716 -92l54 731l309 -667l629 360l-441 -624l631 -449l-727 137l-49 -753l-264 698l-688 -367l479 615zM242 1970l528 -332l111 29zM418 1110l512 262l45 139zM705 1454l296 96l56 -293l71 293l277 -104l-217 221l217 215l-272 -98l-76 284l-72 -284l-276 86 l227 -207zM860 1929l111 -102l-78 704zM963 1663l32 94h115l49 -90l-53 -90h-94zM1143 1503l65 -667l41 569zM1159 1831l545 430l-471 -279zM1225 1663l643 -315l-492 348z" />
<glyph unicode="&#xaa;" d="M197 59h471l303 559h1085l-784 1432z" />
<glyph unicode="&#xad;" horiz-adv-x="1101" d="M190 707v344h721v-344h-721z" />
<glyph unicode="&#xb2;" d="M113 23l1022 995v-574h1054v-421h-2076zM178 1024h428q0 209 137 379q162 193 420 192h822v426h-809q-414 0 -706 -290.5t-292 -706.5z" />
<glyph unicode="&#xb3;" horiz-adv-x="2220" d="M88 1653v422h2077l-1022 -996v574h-1055zM100 1020h428q0 -209 138 -379q162 -193 419 -192h822v-426h-809q-338 0 -668 289.5t-330 707.5z" />
<glyph unicode="&#xb9;" horiz-adv-x="1171" d="M76 1026h600v-995h422v1990z" />
<glyph unicode="&#xba;" d="M129 1024q0 422 288 709.5t709 287.5q412 0 705 -289.5t293 -707.5q0 -424 -287 -710.5t-711 -286.5q-338 0 -667.5 289.5t-329.5 707.5zM582 1024q0 -199 139 -369q164 -203 418 -202q227 0 393 165.5t166 405.5q0 209 -139 379q-162 193 -420 192q-227 0 -392 -167.5 t-165 -403.5z" />
<glyph unicode="&#xc0;" d="M647 2476h426l205 -303l-12 9zM197 59h471l303 559h1085l-784 1432z" />
<glyph unicode="&#xc2;" d="M319 3269l824 954l1081 -997l-828 -1053zM362 3269l1153 309l-372 602zM448 3226l910 -953l174 1258zM1224 4127l375 -514l512 -314zM1489 2359l692 867l-563 262zM197 59h471l303 559h1085l-784 1432z" />
<glyph unicode="&#xc3;" d="M322 3530l716 -92l54 731l309 -667l629 360l-441 -624l631 -449l-727 137l-49 -753l-264 698l-688 -367l479 615zM455 3479l528 -332l111 29zM631 2619l512 262l45 139zM918 2963l296 96l56 -293l71 293l277 -104l-217 221l217 215l-272 -98l-76 284l-72 -284l-276 86 l227 -207zM1073 3438l111 -102l-78 704zM1176 3172l32 94h115l49 -90l-53 -90h-94zM1356 3012l65 -667l41 569zM1372 3340l545 430l-471 -279zM1438 3172l643 -315l-492 348zM197 59h471l303 559h1085l-784 1432z" />
<glyph unicode="&#xc8;" d="M502 2447h426l205 -303l-12 9zM98 33l6 1212h756v-418h-323v-378h1609v-418zM104 1599v416h2044v-416h-2044z" />
<glyph unicode="&#xca;" d="M174 3240l824 954l1081 -997l-828 -1053zM217 3240l1153 309l-372 602zM303 3197l910 -953l174 1258zM1079 4098l375 -514l512 -314zM1344 2330l692 867l-563 262zM98 33l6 1212h756v-418h-323v-378h1609v-418zM104 1599v416h2044v-416h-2044z" />
<glyph unicode="&#xcc;" horiz-adv-x="696" d="M-305 2447h426l205 -303l-12 9zM104 31v1984h431v-1984h-431z" />
<glyph unicode="&#xce;" horiz-adv-x="696" d="M-633 3240l824 954l1081 -997l-828 -1053zM-590 3240l1153 309l-372 602zM-504 3197l910 -953l174 1258zM272 4098l375 -514l512 -314zM537 2330l692 867l-563 262zM104 31v1984h431v-1984h-431z" />
<glyph unicode="&#xd1;" d="M203 3502l716 -92l54 731l309 -667l629 360l-441 -624l631 -449l-727 137l-49 -753l-264 698l-688 -367l479 615zM336 3451l528 -332l111 29zM512 2591l512 262l45 139zM799 2935l296 96l56 -293l71 293l277 -104l-217 221l217 215l-272 -98l-76 284l-72 -284l-276 86 l227 -207zM954 3410l111 -102l-78 704zM1057 3144l32 94h115l49 -90l-53 -90h-94zM1237 2984l65 -667l41 569zM1253 3312l545 430l-471 -279zM1319 3144l643 -315l-492 348zM113 31v1990l1022 -995h-600v-995h-422zM1167 1026h600v995h422v-1990z" />
<glyph unicode="&#xd2;" d="M502 2447h426l205 -303l-12 9zM129 1024q0 422 288 709.5t709 287.5q412 0 705 -289.5t293 -707.5q0 -424 -287 -710.5t-711 -286.5q-338 0 -667.5 289.5t-329.5 707.5zM582 1024q0 -199 139 -369q164 -203 418 -202q227 0 393 165.5t166 405.5q0 209 -139 379 q-162 193 -420 192q-227 0 -392 -167.5t-165 -403.5z" />
<glyph unicode="&#xd4;" d="M174 3240l824 954l1081 -997l-828 -1053zM217 3240l1153 309l-372 602zM303 3197l910 -953l174 1258zM1079 4098l375 -514l512 -314zM1344 2330l692 867l-563 262zM129 1024q0 422 288 709.5t709 287.5q412 0 705 -289.5t293 -707.5q0 -424 -287 -710.5t-711 -286.5 q-338 0 -667.5 289.5t-329.5 707.5zM582 1024q0 -199 139 -369q164 -203 418 -202q227 0 393 165.5t166 405.5q0 209 -139 379q-162 193 -420 192q-227 0 -392 -167.5t-165 -403.5z" />
<glyph unicode="&#xd5;" d="M179 3502l716 -92l54 731l309 -667l629 360l-441 -624l631 -449l-727 137l-49 -753l-264 698l-688 -367l479 615zM312 3451l528 -332l111 29zM488 2591l512 262l45 139zM775 2935l296 96l56 -293l71 293l277 -104l-217 221l217 215l-272 -98l-76 284l-72 -284l-276 86 l227 -207zM930 3410l111 -102l-78 704zM1033 3144l32 94h115l49 -90l-53 -90h-94zM1213 2984l65 -667l41 569zM1229 3312l545 430l-471 -279zM1295 3144l643 -315l-492 348zM129 1024q0 422 288 709.5t709 287.5q412 0 705 -289.5t293 -707.5q0 -424 -287 -710.5 t-711 -286.5q-338 0 -667.5 289.5t-329.5 707.5zM582 1024q0 -199 139 -369q164 -203 418 -202q227 0 393 165.5t166 405.5q0 209 -139 379q-162 193 -420 192q-227 0 -392 -167.5t-165 -403.5z" />
<glyph unicode="&#xd9;" d="M500 2449h426l205 -303l-12 9zM127 1028v995h455v-999q0 -199 139 -369q164 -203 418 -202q227 0 393 165.5t166 405.5v999h426v-999q0 -424 -287 -710.5t-711 -286.5q-412 0 -705.5 288.5t-293.5 712.5z" />
<glyph unicode="&#xdb;" d="M172 3242l824 954l1081 -997l-828 -1053zM215 3242l1153 309l-372 602zM301 3199l910 -953l174 1258zM1077 4100l375 -514l512 -314zM1342 2332l692 867l-563 262zM127 1028v995h455v-999q0 -199 139 -369q164 -203 418 -202q227 0 393 165.5t166 405.5v999h426v-999 q0 -424 -287 -710.5t-711 -286.5q-412 0 -705.5 288.5t-293.5 712.5z" />
<glyph unicode="&#xe0;" d="M647 2476h426l205 -303l-12 9zM197 59h471l303 559h1085l-784 1432z" />
<glyph unicode="&#xe2;" d="M319 3269l824 954l1081 -997l-828 -1053zM362 3269l1153 309l-372 602zM448 3226l910 -953l174 1258zM1224 4127l375 -514l512 -314zM1489 2359l692 867l-563 262zM197 59h471l303 559h1085l-784 1432z" />
<glyph unicode="&#xe3;" d="M322 3530l716 -92l54 731l309 -667l629 360l-441 -624l631 -449l-727 137l-49 -753l-264 698l-688 -367l479 615zM455 3479l528 -332l111 29zM631 2619l512 262l45 139zM918 2963l296 96l56 -293l71 293l277 -104l-217 221l217 215l-272 -98l-76 284l-72 -284l-276 86 l227 -207zM1073 3438l111 -102l-78 704zM1176 3172l32 94h115l49 -90l-53 -90h-94zM1356 3012l65 -667l41 569zM1372 3340l545 430l-471 -279zM1438 3172l643 -315l-492 348zM197 59h471l303 559h1085l-784 1432z" />
<glyph unicode="&#xe8;" d="M502 2447h426l205 -303l-12 9zM98 33l6 1212h756v-418h-323v-378h1609v-418zM104 1599v416h2044v-416h-2044z" />
<glyph unicode="&#xea;" d="M174 3240l824 954l1081 -997l-828 -1053zM217 3240l1153 309l-372 602zM303 3197l910 -953l174 1258zM1079 4098l375 -514l512 -314zM1344 2330l692 867l-563 262zM98 33l6 1212h756v-418h-323v-378h1609v-418zM104 1599v416h2044v-416h-2044z" />
<glyph unicode="&#xec;" horiz-adv-x="696" d="M-305 2447h426l205 -303l-12 9zM104 31v1984h431v-1984h-431z" />
<glyph unicode="&#xee;" horiz-adv-x="696" d="M-633 3240l824 954l1081 -997l-828 -1053zM-590 3240l1153 309l-372 602zM-504 3197l910 -953l174 1258zM272 4098l375 -514l512 -314zM537 2330l692 867l-563 262zM104 31v1984h431v-1984h-431z" />
<glyph unicode="&#xf1;" d="M203 3502l716 -92l54 731l309 -667l629 360l-441 -624l631 -449l-727 137l-49 -753l-264 698l-688 -367l479 615zM336 3451l528 -332l111 29zM512 2591l512 262l45 139zM799 2935l296 96l56 -293l71 293l277 -104l-217 221l217 215l-272 -98l-76 284l-72 -284l-276 86 l227 -207zM954 3410l111 -102l-78 704zM1057 3144l32 94h115l49 -90l-53 -90h-94zM1237 2984l65 -667l41 569zM1253 3312l545 430l-471 -279zM1319 3144l643 -315l-492 348zM113 31v1990l1022 -995h-600v-995h-422zM1167 1026h600v995h422v-1990z" />
<glyph unicode="&#xf2;" d="M502 2447h426l205 -303l-12 9zM129 1024q0 422 288 709.5t709 287.5q412 0 705 -289.5t293 -707.5q0 -424 -287 -710.5t-711 -286.5q-338 0 -667.5 289.5t-329.5 707.5zM582 1024q0 -199 139 -369q164 -203 418 -202q227 0 393 165.5t166 405.5q0 209 -139 379 q-162 193 -420 192q-227 0 -392 -167.5t-165 -403.5z" />
<glyph unicode="&#xf4;" d="M174 3240l824 954l1081 -997l-828 -1053zM217 3240l1153 309l-372 602zM303 3197l910 -953l174 1258zM1079 4098l375 -514l512 -314zM1344 2330l692 867l-563 262zM129 1024q0 422 288 709.5t709 287.5q412 0 705 -289.5t293 -707.5q0 -424 -287 -710.5t-711 -286.5 q-338 0 -667.5 289.5t-329.5 707.5zM582 1024q0 -199 139 -369q164 -203 418 -202q227 0 393 165.5t166 405.5q0 209 -139 379q-162 193 -420 192q-227 0 -392 -167.5t-165 -403.5z" />
<glyph unicode="&#xf5;" d="M179 3502l716 -92l54 731l309 -667l629 360l-441 -624l631 -449l-727 137l-49 -753l-264 698l-688 -367l479 615zM312 3451l528 -332l111 29zM488 2591l512 262l45 139zM775 2935l296 96l56 -293l71 293l277 -104l-217 221l217 215l-272 -98l-76 284l-72 -284l-276 86 l227 -207zM930 3410l111 -102l-78 704zM1033 3144l32 94h115l49 -90l-53 -90h-94zM1213 2984l65 -667l41 569zM1229 3312l545 430l-471 -279zM1295 3144l643 -315l-492 348zM129 1024q0 422 288 709.5t709 287.5q412 0 705 -289.5t293 -707.5q0 -424 -287 -710.5 t-711 -286.5q-338 0 -667.5 289.5t-329.5 707.5zM582 1024q0 -199 139 -369q164 -203 418 -202q227 0 393 165.5t166 405.5q0 209 -139 379q-162 193 -420 192q-227 0 -392 -167.5t-165 -403.5z" />
<glyph unicode="&#xf9;" d="M500 2449h426l205 -303l-12 9zM127 1028v995h455v-999q0 -199 139 -369q164 -203 418 -202q227 0 393 165.5t166 405.5v999h426v-999q0 -424 -287 -710.5t-711 -286.5q-412 0 -705.5 288.5t-293.5 712.5z" />
<glyph unicode="&#xfb;" d="M172 3242l824 954l1081 -997l-828 -1053zM215 3242l1153 309l-372 602zM301 3199l910 -953l174 1258zM1077 4100l375 -514l512 -314zM1342 2332l692 867l-563 262zM127 1028v995h455v-999q0 -199 139 -369q164 -203 418 -202q227 0 393 165.5t166 405.5v999h426v-999 q0 -424 -287 -710.5t-711 -286.5q-412 0 -705.5 288.5t-293.5 712.5z" />
<glyph unicode="&#x152;" horiz-adv-x="4505" d="M2351 33l6 1212h756v-418h-323v-378h1609v-418zM2357 1599v416h2044v-416h-2044zM129 1024q0 422 288 709.5t709 287.5q412 0 705 -289.5t293 -707.5q0 -424 -287 -710.5t-711 -286.5q-338 0 -667.5 289.5t-329.5 707.5zM582 1024q0 -199 139 -369q164 -203 418 -202 q227 0 393 165.5t166 405.5q0 209 -139 379q-162 193 -420 192q-227 0 -392 -167.5t-165 -403.5z" />
<glyph unicode="&#x153;" horiz-adv-x="4505" d="M2351 33l6 1212h756v-418h-323v-378h1609v-418zM2357 1599v416h2044v-416h-2044zM129 1024q0 422 288 709.5t709 287.5q412 0 705 -289.5t293 -707.5q0 -424 -287 -710.5t-711 -286.5q-338 0 -667.5 289.5t-329.5 707.5zM582 1024q0 -199 139 -369q164 -203 418 -202 q227 0 393 165.5t166 405.5q0 209 -139 379q-162 193 -420 192q-227 0 -392 -167.5t-165 -403.5z" />
<glyph unicode="&#x2c6;" horiz-adv-x="2164" d="M180 1604l824 954l1081 -997l-828 -1053zM223 1604l1153 309l-372 602zM309 1561l910 -953l174 1258zM1085 2462l375 -514l512 -314zM1350 694l692 867l-563 262z" />
<glyph unicode="&#x2dc;" horiz-adv-x="1024" d="M-948 1480l716 -92l54 731l309 -667l629 360l-441 -624l631 -449l-727 137l-49 -753l-264 698l-688 -367l479 615zM-815 1429l528 -332l111 29zM-639 569l512 262l45 139zM-352 913l296 96l56 -293l71 293l277 -104l-217 221l217 215l-272 -98l-76 284l-72 -284l-276 86 l227 -207zM-197 1388l111 -102l-78 704zM-94 1122l32 94h115l49 -90l-53 -90h-94zM86 962l65 -667l41 569zM102 1290l545 430l-471 -279zM168 1122l643 -315l-492 348z" />
<glyph unicode="&#x2000;" horiz-adv-x="2111" />
<glyph unicode="&#x2001;" horiz-adv-x="4222" />
<glyph unicode="&#x2002;" horiz-adv-x="2111" />
<glyph unicode="&#x2003;" horiz-adv-x="4222" />
<glyph unicode="&#x2004;" horiz-adv-x="1406" />
<glyph unicode="&#x2005;" horiz-adv-x="1054" />
<glyph unicode="&#x2006;" horiz-adv-x="702" />
<glyph unicode="&#x2007;" horiz-adv-x="702" />
<glyph unicode="&#x2008;" horiz-adv-x="526" />
<glyph unicode="&#x2009;" horiz-adv-x="843" />
<glyph unicode="&#x200a;" horiz-adv-x="233" />
<glyph unicode="&#x2010;" horiz-adv-x="1101" d="M190 707v344h721v-344h-721z" />
<glyph unicode="&#x2011;" horiz-adv-x="1101" d="M190 707v344h721v-344h-721z" />
<glyph unicode="&#x2012;" horiz-adv-x="1101" d="M190 707v344h721v-344h-721z" />
<glyph unicode="&#x2013;" horiz-adv-x="1024" d="M190 707v344h644v-344h-644z" />
<glyph unicode="&#x2014;" horiz-adv-x="2048" d="M190 707v344h1668v-344h-1668z" />
<glyph unicode="&#x2018;" horiz-adv-x="681" d="M-78 2109h426l205 -303l-12 9z" />
<glyph unicode="&#x2019;" horiz-adv-x="1433" d="M559 1956h315l-157 -318z" />
<glyph unicode="&#x201c;" horiz-adv-x="1433" d="M346 1956h316l-158 -318zM772 1956h315l-157 -318z" />
<glyph unicode="&#x201d;" horiz-adv-x="1433" d="M346 1956h316l-158 -318zM772 1956h315l-157 -318z" />
<glyph unicode="&#x2026;" horiz-adv-x="2027" d="M1534 20v275h316v-275h-316zM858 20v275h316v-275h-316zM182 20v275h316v-275h-316z" />
<glyph unicode="&#x202f;" horiz-adv-x="843" />
<glyph unicode="&#x2039;" horiz-adv-x="1089" d="M199 707v368l690 311v-204l-690 -291l690 -291v-205z" />
<glyph unicode="&#x203a;" horiz-adv-x="1085" d="M197 395v205l690 291l-690 291v204l690 -311v-368z" />
<glyph unicode="&#x205f;" horiz-adv-x="1054" />
<glyph unicode="&#x2122;" horiz-adv-x="4259" d="M2120 31v1990l1022 -995l1022 995v-436v-1554h-396v995h-1226v-995h-422zM104 1599v418h1854v-418h-488v-1568h-862l2 1568h-506z" />
<glyph unicode="&#xe000;" horiz-adv-x="2060" d="M0 2060h2060v-2060h-2060v2060z" />
<glyph unicode="&#xfb01;" horiz-adv-x="2949" d="M2357 31v1984h431v-1984h-431zM104 31v1214h756v-418h-323v-796h-433zM104 1599v416h2044v-416h-2044z" />
<glyph unicode="&#xfb02;" horiz-adv-x="4505" d="M2359 31v1988h861v-1564h749v-424h-1610zM104 31v1214h756v-418h-323v-796h-433zM104 1599v416h2044v-416h-2044z" />
<glyph unicode="&#xfb03;" horiz-adv-x="5201" d="M4610 31v1984h431v-1984h-431zM2357 31v1214h756v-418h-323v-796h-433zM2357 1599v416h2044v-416h-2044zM104 31v1214h756v-418h-323v-796h-433zM104 1599v416h2044v-416h-2044z" />
<glyph unicode="&#xfb04;" horiz-adv-x="6758" d="M4612 31v1988h861v-1564h749v-424h-1610zM2357 31v1214h756v-418h-323v-796h-433zM2357 1599v416h2044v-416h-2044zM104 31v1214h756v-418h-323v-796h-433zM104 1599v416h2044v-416h-2044z" />
</font>
</defs>
</svg>
